<?xml version="1.0" encoding="utf-8"?>
<!-- Generator: Adobe Illustrator 21.1.0, SVG Export Plug-In . SVG Version: 6.00 Build 0)  -->
<svg version="1.1" id="Camada_1" xmlns="http://www.w3.org/2000/svg" xmlns:xlink="http://www.w3.org/1999/xlink" x="0px" y="0px"
	 viewBox="0 0 1024 1024" style="enable-background:new 0 0 1024 1024;" xml:space="preserve">
<style type="text/css">
	.st0{fill:#FF781D;}
	.st1{fill:#FFE529;}
	.st2{fill:none;}
	.st3{fill:#FDEBDF;}
	.st4{fill:#FFB624;}
	.st5{fill:#FFF097;}
</style>
<circle class="st0" cx="512" cy="512" r="510.1"/>
<path class="st1" d="M512,1022.1c97.3,0,188.2-27.3,265.6-74.4l-37.1-115.4c-1.7-9.3-4.6-17.9-8.4-25.7c-5.5-14-15.5-25.5-27.8-33.7
	c-23.7-18.1-56.4-27.3-92.9-27.3H394.5c-40.3,0-74.6,5.9-97.5,23.4c-13.8,7.9-25.2,20-31.5,35.3l-49.8,123
	C299.2,987,401.6,1022.1,512,1022.1z"/>
<circle class="st2" cx="512" cy="512" r="510.1"/>
<path class="st3" d="M714.8,455.2c15.5-0.1,28.1,12.4,28.1,27.9c0.1,15.5-12.4,28-27.9,28.1s-28-12.4-28.1-27.9
	C686.9,467.8,699.4,455.2,714.8,455.2"/>
<path class="st4" d="M704.3,433c-0.6,0-7.2,0-15.9,0.1l-0.3-100.5c-0.1-28.1-0.1-79.5-28.1-113.7c-19.6-24-50.9-69.5-154.9-69.5
	c-101.1,0-137.5,47-162.1,80.8c-20.1,27.6-29.2,63.9-29,103.8l0.3,98.3c-7.3,0-12.5,0-13,0c-24.3,0.1-43.9,19.9-43.8,44.1
	c0.1,24.3,19.9,43.9,44.1,43.9c0.5,0,5.6,0,13-0.1v11.6c0.3,84.6,48.1,150.7,120.6,175.7v37.3h-30.5c-0.7,4.7-1,9.4-1,14.3
	c0,53.9,43.7,97.6,97.6,97.6s97.6-43.7,97.6-97.6c0-4.8-0.4-9.6-1-14.3h-30.5v-37.1c73.3-24.9,121.5-91.9,121.2-177.2l0,0v-7.6
	c9,0,15.4,0,15.9,0c24.8-0.1,44.9-20.3,44.8-45.1C749.3,452.9,729.2,432.9,704.3,433z"/>
<path class="st5" d="M499,613.4c41.8-0.1,75.7-34.2,75.6-76.1l-151.7,0.5C423.1,579.7,457.2,613.5,499,613.4L499,613.4z"/>
<path class="st0" d="M426.3,428.8c0,12.1-9.7,21.9-21.8,22c-12.1,0-21.9-9.7-22-21.8c0-12.1,9.7-21.9,21.8-22
	C416.5,406.9,426.3,416.7,426.3,428.8L426.3,428.8z M614.3,428.3c0,12.1-9.7,21.9-21.8,22c-12.1,0-21.9-9.7-22-21.8
	c0-12.1,9.7-21.9,21.8-22C604.5,406.4,614.3,416.1,614.3,428.3z"/>
</svg>
