<?xml version="1.0" encoding="UTF-8"?>
<svg id="Capa_1" data-name="Capa 1" xmlns="http://www.w3.org/2000/svg" viewBox="0 0 651.9 583.02">
  <defs>
    <style>
      .cls-1 {
        fill: #ffe05f;
      }

      .cls-2 {
        fill: #262690;
        stroke: #8b74f1;
        stroke-miterlimit: 10;
        stroke-width: 7px;
      }
    </style>
  </defs>
  <path class="cls-2" d="m454.48,3.5H197.42c-23.36,0-44.95,12.46-56.64,32.7L12.26,258.81c-11.68,20.23-11.68,45.16,0,65.4l128.53,222.62c11.68,20.23,33.27,32.7,56.64,32.7h257.05c23.36,0,44.95-12.46,56.64-32.7l128.53-222.62c11.68-20.23,11.68-45.16,0-65.4L511.11,36.2c-11.68-20.23-33.27-32.7-56.64-32.7Z"/>
  <path class="cls-1" d="m434.13,64.75h-216.36c-14.07,0-27.08,7.51-34.11,19.69l-108.18,187.37c-7.04,12.19-7.04,27.2,0,39.39l108.18,187.37c7.04,12.19,20.04,19.69,34.11,19.69h216.36c14.07,0,27.08-7.51,34.11-19.69l108.18-187.37c7.04-12.19,7.04-27.2,0-39.39l-108.18-187.37c-7.04-12.19-20.04-19.69-34.11-19.69Z"/>
</svg>